<?xml version="1.0" encoding="utf-8"?>
<!-- Generator: Adobe Illustrator 27.0.0, SVG Export Plug-In . SVG Version: 6.00 Build 0)  -->
<svg version="1.1" id="Layer_1" xmlns="http://www.w3.org/2000/svg" xmlns:xlink="http://www.w3.org/1999/xlink" x="0px" y="0px"
	 viewBox="0 0 612 152" style="enable-background:new 0 0 612 152;" xml:space="preserve">
<style type="text/css">
	.st0{fill:url(#SVGID_1_);}
	.st1{fill:url(#SVGID_00000009583955337375330620000002333407014702857603_);}
	.st2{fill:#2B2A2A;}
</style>
<g>
	<linearGradient id="SVGID_1_" gradientUnits="userSpaceOnUse" x1="64.3313" y1="-16.3299" x2="13.3519" y2="122.3341">
		<stop  offset="0" style="stop-color:#B82327"/>
		<stop  offset="1" style="stop-color:#8D1B1E"/>
	</linearGradient>
	<path class="st0" d="M75.7,12.9c0,7.5,0,14.6,0,21.7c0,2.7,0.8,5.9-0.5,7.8c-1.2,1.8-4.4,2.4-6.8,3.5
		c-11.5,5.2-23.1,10.4-34.6,15.6c-1.3,0.6-1.7,1.2-1.7,2.7c0.1,7,0,13.9,0,20.9c0,0.8,0,1.5,0,2.4c-9,0-17.8,0-26.9,0
		c-0.1-0.8-0.1-1.6-0.2-2.4c0-8-0.1-16,0-24c0.2-10.3,4.9-18,14.1-22.5C32.5,32.2,46,26.3,59.4,20.3C64.7,17.9,70,15.5,75.7,12.9z"
		/>
	
		<linearGradient id="SVGID_00000175291352298028593450000012527011080789915559_" gradientUnits="userSpaceOnUse" x1="93.1963" y1="-5.7178" x2="42.2169" y2="132.9462">
		<stop  offset="0" style="stop-color:#B82327"/>
		<stop  offset="1" style="stop-color:#8D1B1E"/>
	</linearGradient>
	<path style="fill:url(#SVGID_00000175291352298028593450000012527011080789915559_);" d="M61.8,62.6c9.1,0,17.9,0,26.9,0
		c0,0.7,0.1,1.5,0.1,2.2c0,8.1,0.1,16.2,0,24.2c-0.2,10.4-4.9,18.2-14.2,22.6c-14,6.7-28.2,13-42.3,19.5c-4.3,2-8.5,3.9-13.1,6
		c-0.1-0.9-0.2-1.5-0.2-2.2c0-8.5,0.1-17,0-25.5c0-1.6,0.6-2.3,2-3c13-5.9,26-11.8,39-17.7c1.4-0.6,2-1.4,2-3
		C61.8,78.1,61.8,70.5,61.8,62.6z"/>
</g>
<g>
	<path class="st2" d="M166,75.2c-2.3-2.2-5.1-4.1-8.4-5.7c-3.3-1.6-7.1-3.1-11.3-4.3c-3.7-1.2-6.9-2.2-9.5-3.2
		c-2.5-0.9-4.5-2-6.1-3.1c-1.5-1.1-2.5-2.3-3.2-3.7c-0.6-1.4-1-3.2-1-5.4c0-1.8,0.4-3.5,1.1-4.9c0.7-1.4,1.8-2.7,3.2-3.7
		c1.4-1,3.2-1.8,5.3-2.4c2.1-0.6,4.5-0.8,7.2-0.8c1.7,0,3.4,0.1,5.1,0.3c1.7,0.2,3.4,0.5,5,0.9c1.7,0.4,3.4,0.9,5.2,1.6
		c1.8,0.7,3.7,1.5,5.8,2.6l0.8,0.4l5.6-11.8l-0.7-0.4c-4.9-2.7-9.6-4.7-14.2-5.8c-4.5-1.2-9.1-1.7-13.7-1.7c-5.3,0-10,0.6-14,1.9
		c-4,1.3-7.5,3.1-10.2,5.5c-2.7,2.4-4.8,5.2-6.2,8.6c-1.4,3.3-2,7.1-2,11.1c0,4.3,0.7,7.9,2,10.8c1.3,2.9,3.3,5.5,5.8,7.5
		c2.5,2,5.6,3.8,9.3,5.2c3.6,1.4,7.8,2.8,12.4,4.1c3,0.9,5.7,1.8,7.9,2.8c2.1,1,3.9,2.1,5.2,3.3c1.3,1.2,2.3,2.5,2.9,4
		c0.6,1.5,0.9,3.2,0.9,5.1c0,1.9-0.3,3.7-1,5.4c-0.6,1.6-1.6,3.1-3,4.3c-1.3,1.2-3,2.2-5.1,2.9c-2.1,0.7-4.6,1.1-7.4,1.1
		c-1.9,0-3.8-0.1-5.5-0.2c-1.7-0.2-3.6-0.5-5.5-1c-2-0.5-4.2-1.2-6.6-2.2c-2.4-0.9-5.3-2.2-8.6-3.7l-0.8-0.4l-5.3,12.4l0.6,0.4
		c2.8,1.5,5.5,2.9,8.1,4c2.6,1.1,5.3,2,7.9,2.7c2.6,0.7,5.3,1.2,8,1.6c2.7,0.3,5.5,0.5,8.5,0.5c5.4,0,10.2-0.7,14.2-2.1
		c4-1.4,7.4-3.4,10.1-5.9c2.7-2.5,4.7-5.6,6-9.2c1.3-3.6,1.9-7.5,1.9-11.8c0-3.7-0.6-7.1-1.8-9.9C170.1,79.9,168.3,77.3,166,75.2z"
		/>
	<path class="st2" d="M213.4,105.8c-1.4,0.6-2.9,1.1-4.4,1.7c-1.4,0.5-3.3,0.8-5.4,0.8c-1.3,0-2.4-0.2-3.2-0.7
		c-0.8-0.5-1.5-1.1-2-1.9c-0.5-0.9-0.9-1.9-1.2-3.1c-0.2-1.3-0.4-2.7-0.4-4.3v-35h15.7V50.7h-15.7V34h-14.1L181,50.8l-8,1.4v11.1
		h7.9v36.4c0,3.7,0.5,7,1.4,9.7c0.9,2.8,2.2,5.1,3.9,6.9c1.7,1.8,3.7,3.2,6.1,4.1c2.3,0.9,4.9,1.3,7.7,1.3c1.9,0,3.7-0.1,5.3-0.3
		c1.6-0.2,3.1-0.5,4.5-0.9c1.4-0.4,2.8-0.9,4.1-1.5c1.3-0.6,2.6-1.2,3.8-1.9l0.6-0.3l-4.2-11.2L213.4,105.8z"/>
	<path class="st2" d="M262.9,64.2l2.5-12.6l-0.7-0.2c-7.1-2.1-14.4-2.6-21.6-1.4c-7.3,1.2-14.7,4.4-22,9.4l-0.4,0.2v60.9h15.9V68.1
		c2-1.4,4.1-2.4,6.1-3.2c2.2-0.8,4.4-1.3,6.5-1.6c2.2-0.3,4.4-0.3,6.5-0.2c2.2,0.2,4.3,0.4,6.4,0.8L262.9,64.2z"/>
	<path class="st2" d="M315.9,53.1c-2-0.8-4.2-1.5-6.4-2c-2.3-0.6-4.7-1.1-7.2-1.4c-2.5-0.4-5.1-0.5-7.7-0.5c-5.1,0-10,0.8-14.3,2.3
		c-4.4,1.6-8.2,3.9-11.3,7c-3.1,3.1-5.6,7-7.4,11.5c-1.8,4.6-2.6,9.9-2.6,15.9c0,5.9,0.7,11.2,2,15.6c1.3,4.5,3.3,8.2,5.7,11.2
		c2.4,3,5.4,5.3,8.7,6.8c3.4,1.5,7.1,2.3,11.1,2.3c2.5,0,4.7-0.2,6.7-0.7c2-0.5,3.8-1.1,5.5-1.8c1.6-0.8,3.2-1.6,4.6-2.6
		c1-0.7,2.1-1.4,3.1-2.2l1.6,6.1h13.9V55.7l-0.5-0.2C319.7,54.7,317.9,53.9,315.9,53.1z M294.1,62.6c1.4,0,2.8,0.1,4.1,0.3
		c1.3,0.2,2.5,0.4,3.6,0.7c1.1,0.3,2.1,0.5,2.8,0.8c0.5,0.2,0.9,0.3,1.3,0.4v38.1c-1.7,1.5-3.9,2.7-6.5,3.8
		c-2.8,1.1-5.7,1.6-8.8,1.6c-2.3,0-4.5-0.4-6.5-1.3c-1.9-0.9-3.7-2.2-5.1-4c-1.4-1.8-2.6-4.2-3.4-7.1c-0.8-2.9-1.2-6.4-1.2-10.4
		c0-3.7,0.5-7.1,1.4-9.9c0.9-2.8,2.3-5.2,4-7.1c1.7-1.9,3.8-3.4,6.2-4.3C288.6,63.1,291.2,62.6,294.1,62.6z"/>
	<path class="st2" d="M366,105.8c-1.4,0.6-2.9,1.1-4.4,1.7c-1.4,0.5-3.3,0.8-5.4,0.8c-1.3,0-2.4-0.2-3.2-0.7c-0.8-0.4-1.5-1.1-2-1.9
		c-0.5-0.8-0.9-1.9-1.2-3.1c-0.2-1.3-0.4-2.7-0.4-4.3v-35h15.7V50.7h-15.7V34h-14.1l-1.8,16.8l-8,1.4v11.1h7.9v36.4
		c0,3.7,0.5,7,1.4,9.7c0.9,2.8,2.2,5.1,3.9,6.9c1.7,1.8,3.7,3.2,6.1,4.1c2.3,0.9,4.9,1.3,7.7,1.3c1.9,0,3.7-0.1,5.3-0.3
		c1.6-0.2,3.1-0.5,4.5-0.9c1.4-0.4,2.8-0.9,4.1-1.5c1.3-0.6,2.6-1.2,3.8-1.9l0.6-0.3l-4.2-11.2L366,105.8z"/>
	<path class="st2" d="M424.7,53.1c-2-0.8-4.2-1.5-6.4-2c-2.3-0.6-4.7-1.1-7.2-1.4c-2.5-0.4-5.1-0.5-7.7-0.5c-5.1,0-10,0.8-14.3,2.3
		c-4.4,1.6-8.2,3.9-11.3,7c-3.1,3.1-5.6,7-7.4,11.5c-1.8,4.6-2.6,9.9-2.6,15.9c0,5.9,0.7,11.2,2,15.6c1.3,4.5,3.3,8.2,5.7,11.2
		c2.4,3,5.4,5.3,8.7,6.8c3.4,1.5,7.1,2.3,11.1,2.3c2.5,0,4.7-0.2,6.7-0.7c2-0.5,3.8-1.1,5.5-1.8c1.6-0.8,3.2-1.6,4.6-2.6
		c1-0.7,2.1-1.4,3.1-2.2l1.6,6.1h13.9V55.7l-0.5-0.2C428.6,54.7,426.7,53.9,424.7,53.1z M403,62.6c1.4,0,2.8,0.1,4.1,0.3
		c1.3,0.2,2.5,0.4,3.6,0.7c1.1,0.3,2,0.5,2.8,0.8c0.5,0.2,0.9,0.3,1.3,0.4v38.1c-1.7,1.5-3.9,2.7-6.5,3.8c-2.8,1.1-5.7,1.6-8.8,1.6
		c-2.3,0-4.5-0.4-6.5-1.3c-1.9-0.9-3.7-2.2-5.1-4c-1.4-1.8-2.6-4.2-3.4-7.1c-0.8-2.9-1.2-6.4-1.2-10.4c0-3.7,0.5-7.1,1.4-9.9
		c0.9-2.8,2.3-5.2,4-7.1c1.7-1.9,3.8-3.4,6.2-4.3C397.4,63.1,400.1,62.6,403,62.6z"/>
	<path class="st2" d="M470.7,50.7h-15V46c0-2.2,0.2-4.1,0.6-5.5c0.4-1.4,0.9-2.6,1.6-3.4c0.7-0.8,1.5-1.4,2.4-1.8
		c1-0.4,2.1-0.6,3.4-0.6c2.1,0,3.8,0.2,5.2,0.6c1.4,0.4,2.6,0.8,3.6,1.1l0.8,0.3l3.9-11.4l-0.6-0.3c-1.9-1-4.2-1.8-6.8-2.6
		c-2.7-0.8-5.6-1.1-8.8-1.1c-3.9,0-7.3,0.7-10,2.1c-2.7,1.4-4.9,3.2-6.5,5.5c-1.7,2.2-2.8,4.7-3.5,7.5c-0.7,2.7-1,5.5-1,8.2v6.5
		l-6.5,1.5v11h6.5v57.2h15.9V63.3h15V50.7z"/>
	<path class="st2" d="M524.5,53.1c-2-0.8-4.2-1.5-6.4-2c-2.3-0.6-4.7-1.1-7.2-1.4c-2.5-0.4-5.1-0.5-7.7-0.5c-5.1,0-10,0.8-14.3,2.3
		c-4.4,1.6-8.2,3.9-11.3,7c-3.1,3.1-5.6,7-7.4,11.5c-1.8,4.6-2.6,9.9-2.6,15.9c0,5.9,0.7,11.2,2,15.6c1.3,4.5,3.3,8.2,5.7,11.2
		c2.4,3,5.4,5.3,8.7,6.8c3.4,1.5,7.1,2.3,11.1,2.3c2.5,0,4.7-0.2,6.7-0.7c2-0.5,3.8-1.1,5.5-1.8c1.6-0.8,3.2-1.6,4.6-2.6
		c1-0.7,2.1-1.4,3.1-2.2l1.6,6.1h13.9V55.7l-0.5-0.2C528.3,54.7,526.4,53.9,524.5,53.1z M502.7,62.6c1.4,0,2.8,0.1,4.1,0.3
		c1.3,0.2,2.5,0.4,3.6,0.7c1.1,0.3,2,0.5,2.8,0.8c0.5,0.2,0.9,0.3,1.3,0.4v38.1c-1.7,1.5-3.9,2.7-6.5,3.8c-2.8,1.1-5.7,1.6-8.8,1.6
		c-2.3,0-4.5-0.4-6.5-1.3c-1.9-0.9-3.7-2.2-5.1-4c-1.4-1.8-2.6-4.2-3.4-7.1c-0.8-2.9-1.2-6.4-1.2-10.4c0-3.7,0.5-7.1,1.4-9.9
		c0.9-2.8,2.3-5.2,4-7.1c1.7-1.9,3.8-3.4,6.2-4.3C497.1,63.1,499.8,62.6,502.7,62.6z"/>
	<path class="st2" d="M545.9,25.3c-3,0-5.4,0.6-7.1,1.9c-1.7,1.3-2.6,3.4-2.6,6.2c0,3.7,1.7,8.2,9.8,8.2c3.3,0,5.7-0.7,7.2-2.2
		c1.5-1.5,2.2-3.4,2.2-5.8C555.4,29.8,553.8,25.3,545.9,25.3z"/>
	<rect x="538" y="50.7" class="st2" width="15.9" height="69.8"/>
	<path class="st2" d="M606.3,51.4c-7.1-2.1-14.4-2.6-21.6-1.4c-7.3,1.2-14.7,4.4-22,9.4l-0.4,0.2v60.9h15.9V68.1
		c2-1.4,4.1-2.4,6.1-3.2c2.2-0.8,4.4-1.3,6.5-1.6c2.2-0.3,4.4-0.3,6.5-0.2c2.2,0.2,4.3,0.4,6.4,0.8l0.8,0.2l2.5-12.6L606.3,51.4z"/>
</g>
</svg>
